<svg xmlns="http://www.w3.org/2000/svg" version="1.1" xmlns:xlink="http://www.w3.org/1999/xlink" xmlns:svgjs="http://svgjs.com/svgjs" width="80" height="80" x="0" y="0" viewBox="0 0 512 512" style="enable-background:new 0 0 512 512" xml:space="preserve" class=""><g><path d="M85.332 512c-1.375 0-2.762-.258-4.086-.813-3.976-1.64-6.578-5.542-6.578-9.855v-64c0-5.898 4.777-10.664 10.664-10.664 5.89 0 10.668 4.766 10.668 10.664v38.254l45.793-45.793a10.622 10.622 0 0 1 7.539-3.125h320c11.766 0 21.336-9.57 21.336-21.336V106.668c0-11.766-9.57-21.336-21.336-21.336H416c-5.898 0-10.668-4.777-10.668-10.664 0-5.89 4.77-10.668 10.668-10.668h53.332C492.863 64 512 83.137 512 106.668v298.664C512 428.863 492.863 448 469.332 448H153.75l-60.875 60.875A10.686 10.686 0 0 1 85.332 512zM42.668 448C19.137 448 0 428.863 0 405.332V106.668C0 83.137 19.137 64 42.668 64H96c5.887 0 10.668 4.777 10.668 10.668 0 5.887-4.781 10.664-10.668 10.664H42.668c-11.766 0-21.336 9.57-21.336 21.336v298.664c0 11.766 9.57 21.336 21.336 21.336 5.887 0 10.664 4.766 10.664 10.664S48.555 448 42.668 448zm0 0" fill="#03c4ff" data-original="#000000" class=""></path><path d="M405.332 266.668h-10.664C388.77 266.668 384 261.887 384 256s4.77-10.668 10.668-10.668h10.664c11.766 0 21.336-9.566 21.336-21.332v-21.332c0-11.766-9.57-21.336-21.336-21.336h-10.664c-5.898 0-10.668-4.777-10.668-10.664v-21.336c0-70.578-57.418-128-128-128s-128 57.422-128 128v21.336c0 5.887-4.777 10.664-10.668 10.664-5.887 0-10.664-4.777-10.664-10.664v-21.336C106.668 66.988 173.652 0 256 0s149.332 66.988 149.332 149.332V160C428.863 160 448 179.137 448 202.668V224c0 23.531-19.137 42.668-42.668 42.668zm0 0" fill="#03c4ff" data-original="#000000" class=""></path><path d="M117.332 266.668h-10.664C83.137 266.668 64 247.531 64 224v-21.332C64 179.137 83.137 160 106.668 160h10.664c5.89 0 10.668 4.777 10.668 10.668V256c0 5.887-4.777 10.668-10.668 10.668zm-10.664-85.336c-11.766 0-21.336 9.57-21.336 21.336V224c0 11.766 9.57 21.332 21.336 21.332zM256 405.332c-17.645 0-32-14.355-32-32 0-17.64 14.355-32 32-32 13.91 0 25.77 8.918 30.176 21.336H288c52.938 0 96-43.063 96-96v-53.336c0-5.887 4.77-10.664 10.668-10.664s10.664 4.777 10.664 10.664v53.336C405.332 331.359 352.692 384 288 384h-10.668a10.656 10.656 0 0 1-10.664-10.668c0-5.887-4.79-10.664-10.668-10.664s-10.668 4.777-10.668 10.664c0 5.89 4.79 10.668 10.668 10.668 5.887 0 10.668 4.77 10.668 10.668s-4.781 10.664-10.668 10.664zM352 160c-5.898 0-10.668-4.777-10.668-10.668C341.332 102.282 303.051 64 256 64s-85.332 38.281-85.332 85.332c0 5.89-4.781 10.668-10.668 10.668s-10.668-4.777-10.668-10.668c0-58.816 47.852-106.664 106.668-106.664s106.668 47.848 106.668 106.664c0 5.89-4.77 10.668-10.668 10.668zM202.668 277.332H224v21.336h-21.332zM245.332 277.332h21.336v21.336h-21.336zm0 0" fill="#03c4ff" data-original="#000000" class=""></path><path d="M288 277.332h21.332v21.336H288zm0 0" fill="#03c4ff" data-original="#000000" class=""></path></g></svg>